<svg id="Capa_1" data-name="Capa 1" xmlns="http://www.w3.org/2000/svg" viewBox="0 0 1268.98 369.45"><defs><style>.cls-1{fill:#023052;}.cls-2{fill:#f8a900;}</style></defs><path class="cls-1" d="M63.18,185.18c.12-8.19,3-14.72,8.85-18.36,5.25-3.27,7.42-7.7,9.37-12.78Q97.95,111,114.45,68C116.69,62.1,119,56.24,121,50.29c1.28-3.83,2.85-6,7.62-5.79,10.79.46,21.62.14,33,.14-8.29,33.43-16.48,66.48-24.87,100.34,18.22-4.17,35.52-8.08,52.77-12.23.94-.23,2.19-2.73,1.92-3.83-6.24-25.7-12.68-51.34-19-77-.56-2.23-.93-4.51-1.49-7.27,12.14,0,24.1-.09,36.06.15,1.17,0,2.82,1.94,3.36,3.33,8.84,22.59,17.54,45.25,26.46,68.36,8.55-4.18,15.34-10,20-18.83a20.88,20.88,0,0,1-3,22c-9.34,10.84-22.3,15-35.15,18.62-24.8,6.94-49.89,12.91-74.92,19-23.12,5.65-46.57,10.14-68.28,20.4C71.42,179.56,67.83,182.29,63.18,185.18Z"/><path class="cls-1" d="M307.82,301.66c-7.43-1.3-14.24-2.6-21.08-3.66-10.66-1.66-21.33-3.26-32-4.7-6.44-.87-13-1.09-19.34-2.29-1.8-.34-4-2.9-4.54-4.83-4-15.35-7.6-30.81-11.41-46.21-2.58-10.41-5.29-20.79-7.9-31L264.94,190Z"/><path class="cls-1" d="M34.06,266.36c0-3.1-.37-6.25.06-9.29,2.29-16.28,12.94-26.7,26-34.74,19.58-12.05,41.7-17.32,63.81-22.49,18-4.22,36-8.49,53.93-13.22,20.92-5.54,42-10.82,62.46-17.69,16.68-5.6,32-14.14,39.94-32.93,3.18,7.54,2.8,14.1,1.38,20.61-3.28,15-14.47,23.29-27.61,27.77-25.46,8.68-51.35,16.17-77.23,23.58-30.64,8.78-61.53,16.72-92.18,25.48a102.4,102.4,0,0,0-39,21.29c-3.85,3.33-6.81,7.68-10.18,11.55Z"/><path class="cls-1" d="M49.11,222.49c-3.46-5.62-2.23-13.29,2-19.3,7.36-10.33,18.11-15.88,29.51-19.29,21.81-6.53,44-11.93,66.06-17.48,30.44-7.63,61.54-12.85,90.86-24.5C250,137,260.75,129.55,267.1,117.13a24.28,24.28,0,0,1,1.68-2.41c5,8.93,1.18,22.44-5.74,30.07-9.71,10.72-22.51,15.84-35.85,19.5-24.86,6.82-49.9,12.94-74.85,19.41-21.9,5.68-43.89,11.05-65.63,17.31C72.62,205.06,59.4,211.33,49.11,222.49Z"/><path class="cls-1" d="M25.4,301.54c4.48-21.14,15-37.33,34.15-47.82,17-9.32,35.37-14.23,54.8-19.88C113,239.9,112,245,110.72,250.05c-2.93,11.86-6,23.68-8.9,35.56-1,4-2.92,5.36-7.15,5.78-14.21,1.43-28.37,3.38-42.51,5.43C43.18,298.12,34.28,300,25.4,301.54Z"/><path class="cls-1" d="M604,43.45v119.3c0,69.05-37,95.5-96,95.5s-96-26.45-96-95.5V43.45h52.91V149.53c0,45.23,16.93,62.43,43.12,62.43s43.12-17.2,43.12-62.43V43.45Z"/><path class="cls-1" d="M835.45,120.16c0,58.73-47.62,74.87-96.29,74.87h-42.6v60.05h-52.9V43.45h92.85C782.54,43.45,835.45,57.2,835.45,120.16Zm-53.44.27c0-17.73-11.37-29.37-40.21-29.37H696.56v56.35H741.8C770.64,147.41,782,136,782,120.43Z"/><path class="cls-1" d="M951.85,222.54c23.81,0,46.83-6.88,66.93-14v37.83c-13.23,7.14-39.41,11.37-67.19,11.37-64,0-97.35-26.19-97.35-72.48,0-46.56,33.06-75.66,84.12-75.66,57.67,0,86.24,33.6,86.24,86H908.47C912.7,210.63,924.6,222.54,951.85,222.54Zm-44.44-49.47h65.87c-2.64-17.46-13-25.13-34.92-25.13C920.64,148.47,910.06,156.67,907.41,173.07Z"/><path class="cls-1" d="M1243.11,43.45v119.3c0,69.05-37,95.5-96,95.5s-96-26.45-96-95.5V43.45H1104V149.53c0,45.23,16.93,62.43,43.12,62.43s43.12-17.2,43.12-62.43V43.45Z"/><path class="cls-1" d="M443.47,289.16v24.08c0,9.11,4,13,9.47,13,6,0,9.9-4,9.9-13V289.16h5.31v23.71c0,12.49-6.58,17.62-15.39,17.62-8.33,0-14.61-4.76-14.61-17.37v-24Z"/><path class="cls-1" d="M477.26,329.83V289.16H483l13,20.58a115.72,115.72,0,0,1,7.3,13.21l.12-.06c-.48-5.43-.6-10.38-.6-16.71v-17h4.94v40.67h-5.31l-12.91-20.64A129,129,0,0,1,482,295.61l-.18.07c.31,5.12.43,10,.43,16.77v17.38Z"/><path class="cls-1" d="M522.22,289.16v40.67H517V289.16Z"/><path class="cls-1" d="M540.32,329.83l-13.27-40.67h5.67l6.33,20c1.75,5.49,3.26,10.44,4.35,15.21h.12c1.15-4.71,2.84-9.84,4.65-15.15L555,289.16h5.62l-14.55,40.67Z"/><path class="cls-1" d="M586.13,310.76H570.31v14.67h17.63v4.4H565.06V289.16h22v4.4H570.31v12.86h15.82Z"/><path class="cls-1" d="M594.75,289.7a55.06,55.06,0,0,1,10.08-.84c5.61,0,9.23,1,11.77,3.32a10.12,10.12,0,0,1,3.2,7.72,10.68,10.68,0,0,1-7.67,10.38v.18c3.14,1.09,5,4,6,8.21,1.33,5.67,2.29,9.59,3.14,11.16h-5.44c-.66-1.15-1.57-4.65-2.71-9.71-1.21-5.62-3.38-7.73-8.15-7.91h-5v17.62h-5.25ZM600,308.23h5.37c5.62,0,9.18-3.08,9.18-7.73,0-5.25-3.81-7.54-9.36-7.6a21.79,21.79,0,0,0-5.19.48Z"/><path class="cls-1" d="M626.49,323.43a18.63,18.63,0,0,0,9.42,2.66c5.37,0,8.51-2.84,8.51-6.94,0-3.8-2.18-6-7.67-8.09-6.64-2.35-10.74-5.79-10.74-11.52,0-6.34,5.25-11.05,13.16-11.05a18.42,18.42,0,0,1,9,2l-1.45,4.28a16.24,16.24,0,0,0-7.72-1.93c-5.56,0-7.67,3.32-7.67,6.09,0,3.8,2.48,5.68,8.09,7.85,6.88,2.65,10.38,6,10.38,12,0,6.27-4.65,11.71-14.24,11.71-3.93,0-8.21-1.15-10.38-2.6Z"/><path class="cls-1" d="M662.22,289.16v40.67H657V289.16Z"/><path class="cls-1" d="M671.39,289.7a75.66,75.66,0,0,1,11.17-.84c7.54,0,12.91,1.75,16.47,5.06s5.74,8,5.74,14.61-2.06,12.07-5.86,15.81-10.08,5.85-18,5.85a85.41,85.41,0,0,1-9.54-.48Zm5.25,36a33.37,33.37,0,0,0,5.31.3c11.23,0,17.32-6.28,17.32-17.26.06-9.6-5.37-15.69-16.47-15.69a30,30,0,0,0-6.16.54Z"/><path class="cls-1" d="M717.32,317l-4.23,12.79h-5.43l13.82-40.67h6.34l13.88,40.67h-5.62L731.74,317Zm13.33-4.11-4-11.7c-.91-2.66-1.51-5.07-2.11-7.43h-.12c-.61,2.42-1.27,4.89-2.05,7.37l-4,11.76Z"/><path class="cls-1" d="M747.67,289.7a75.63,75.63,0,0,1,11.16-.84c7.55,0,12.92,1.75,16.48,5.06s5.73,8,5.73,14.61-2,12.07-5.85,15.81-10.08,5.85-18,5.85a85.22,85.22,0,0,1-9.53-.48Zm5.25,36a33.37,33.37,0,0,0,5.31.3c11.23,0,17.32-6.28,17.32-17.26.06-9.6-5.37-15.69-16.47-15.69a30,30,0,0,0-6.16.54Z"/><path class="cls-1" d="M800.65,289.64a61.32,61.32,0,0,1,10.08-.78c5.19,0,9,1.2,11.41,3.37a11,11,0,0,1,3.56,8.51,12,12,0,0,1-3.14,8.69c-2.78,3-7.3,4.47-12.43,4.47a18.23,18.23,0,0,1-4.23-.36v16.29h-5.25Zm5.25,19.61a17.71,17.71,0,0,0,4.35.43c6.33,0,10.2-3.08,10.2-8.69,0-5.38-3.81-8-9.6-8a22.23,22.23,0,0,0-5,.42Z"/><path class="cls-1" d="M853.82,310.76H838v14.67h17.62v4.4H832.76V289.16h22v4.4H838v12.86h15.81Z"/><path class="cls-1" d="M862.45,289.7a54.87,54.87,0,0,1,10.07-.84c5.62,0,9.24,1,11.77,3.32a10.12,10.12,0,0,1,3.2,7.72,10.68,10.68,0,0,1-7.66,10.38v.18c3.13,1.09,5,4,6,8.21,1.33,5.67,2.29,9.59,3.14,11.16h-5.43c-.67-1.15-1.57-4.65-2.72-9.71-1.21-5.62-3.38-7.73-8.14-7.91H867.7v17.62h-5.25Zm5.25,18.53h5.37c5.61,0,9.17-3.08,9.17-7.73,0-5.25-3.8-7.54-9.35-7.6a21.65,21.65,0,0,0-5.19.48Z"/><path class="cls-1" d="M900.16,289.16v24.08c0,9.11,4.05,13,9.48,13,6,0,9.89-4,9.89-13V289.16h5.31v23.71c0,12.49-6.57,17.62-15.38,17.62-8.33,0-14.61-4.76-14.61-17.37v-24Z"/><path class="cls-1" d="M938.48,317l-4.22,12.79h-5.44l13.82-40.67H949l13.88,40.67h-5.61L952.9,317Zm13.34-4.11-4-11.7c-.9-2.66-1.5-5.07-2.11-7.43h-.12c-.6,2.42-1.27,4.89-2.05,7.37l-4,11.76Z"/><path class="cls-1" d="M968.83,329.83V289.16h5.74l13,20.58A114.2,114.2,0,0,1,994.9,323l.13-.06c-.49-5.43-.61-10.38-.61-16.71v-17h5v40.67h-5.31l-12.92-20.64a128.81,128.81,0,0,1-7.6-13.58l-.18.07c.3,5.12.42,10,.42,16.77v17.38Z"/><path class="cls-1" d="M1015.12,317l-4.23,12.79h-5.43l13.82-40.67h6.34l13.88,40.67h-5.61L1029.54,317Zm13.34-4.11-4-11.7c-.9-2.66-1.5-5.07-2.11-7.43h-.12c-.6,2.42-1.27,4.89-2,7.37l-4,11.76Z"/><path class="cls-1" d="M1063.52,289.16v24.08c0,9.11,4,13,9.47,13,6,0,9.9-4,9.9-13V289.16h5.31v23.71c0,12.49-6.58,17.62-15.39,17.62-8.33,0-14.6-4.76-14.6-17.37v-24Z"/><path class="cls-1" d="M1097.31,329.83V289.16H1103l13,20.58a114.2,114.2,0,0,1,7.3,13.21l.12-.06c-.48-5.43-.6-10.38-.6-16.71v-17h4.94v40.67h-5.31l-12.91-20.64a127,127,0,0,1-7.6-13.58l-.19.07c.31,5.12.43,10,.43,16.77v17.38Z"/><path class="cls-1" d="M1142.27,289.16v40.67H1137V289.16Z"/><path class="cls-1" d="M1186.2,309.07c0,14-8.51,21.42-18.89,21.42-10.74,0-18.28-8.32-18.28-20.63,0-12.92,8-21.37,18.88-21.37C1179,288.49,1186.2,297,1186.2,309.07Zm-31.56.67c0,8.69,4.71,16.47,13,16.47s13-7.66,13-16.9c0-8.08-4.23-16.53-13-16.53S1154.64,300.8,1154.64,309.74Zm21.78-29.94-7.66,7h-4.34l5.61-7Z"/><path class="cls-1" d="M1193,329.83V289.16h5.73l13,20.58a114.2,114.2,0,0,1,7.3,13.21l.12-.06c-.48-5.43-.6-10.38-.6-16.71v-17h5v40.67h-5.32l-12.91-20.64a128.81,128.81,0,0,1-7.6-13.58l-.19.07c.31,5.12.43,10,.43,16.77v17.38Z"/><rect class="cls-2" x="339.74" y="39.21" width="14.51" height="291.28" transform="translate(693.99 369.7) rotate(180)"/></svg>